<?xml version="1.0" encoding="UTF-8" standalone="no"?>
<!-- Created with Inkscape (http://www.inkscape.org/) -->

<svg
   width="210mm"
   height="297mm"
   viewBox="0 0 210 297"
   version="1.1"
   id="svg5"
   xml:space="preserve"
   inkscape:version="1.2.1 (9c6d41e410, 2022-07-14)"
   sodipodi:docname="items.svg"
   xmlns:inkscape="http://www.inkscape.org/namespaces/inkscape"
   xmlns:sodipodi="http://sodipodi.sourceforge.net/DTD/sodipodi-0.dtd"
   xmlns:xlink="http://www.w3.org/1999/xlink"
   xmlns="http://www.w3.org/2000/svg"
   xmlns:svg="http://www.w3.org/2000/svg"><sodipodi:namedview
     id="namedview7"
     pagecolor="#ffffff"
     bordercolor="#000000"
     borderopacity="0.25"
     inkscape:showpageshadow="2"
     inkscape:pageopacity="0.0"
     inkscape:pagecheckerboard="0"
     inkscape:deskcolor="#d1d1d1"
     inkscape:document-units="mm"
     showgrid="false"
     showguides="true"
     inkscape:zoom="0.66142459"
     inkscape:cx="291.03847"
     inkscape:cy="294.81819"
     inkscape:window-width="1366"
     inkscape:window-height="705"
     inkscape:window-x="-8"
     inkscape:window-y="-8"
     inkscape:window-maximized="1"
     inkscape:current-layer="layer1"><sodipodi:guide
       position="184.70571,323.87144"
       orientation="0,-1"
       id="guide9459"
       inkscape:locked="false" /></sodipodi:namedview><defs
     id="defs2"><linearGradient
       inkscape:collect="always"
       id="linearGradient3559"><stop
         style="stop-color:#1c1c1c;stop-opacity:1;"
         offset="0"
         id="stop3555" /><stop
         style="stop-color:#0d3a8e;stop-opacity:1;"
         offset="1"
         id="stop3557" /></linearGradient><linearGradient
       inkscape:collect="always"
       id="linearGradient2038"><stop
         style="stop-color:#fd9300;stop-opacity:1;"
         offset="0"
         id="stop2034" /><stop
         style="stop-color:#feec26;stop-opacity:1;"
         offset="1"
         id="stop2036" /></linearGradient><linearGradient
       inkscape:collect="always"
       id="linearGradient1283"><stop
         style="stop-color:#ffac73;stop-opacity:1;"
         offset="0"
         id="stop1279" /><stop
         style="stop-color:#ffc772;stop-opacity:1;"
         offset="1"
         id="stop1281" /></linearGradient><inkscape:path-effect
       effect="bspline"
       id="path-effect1277"
       is_visible="true"
       lpeversion="1"
       weight="33.333333"
       steps="2"
       helper_size="0"
       apply_no_weight="true"
       apply_with_weight="true"
       only_selected="false" /><linearGradient
       inkscape:collect="always"
       xlink:href="#linearGradient1283"
       id="linearGradient1285"
       x1="163.22339"
       y1="107.29436"
       x2="176.75112"
       y2="107.29436"
       gradientUnits="userSpaceOnUse"
       gradientTransform="translate(-2.1214286,-0.1414286)" /><linearGradient
       inkscape:collect="always"
       xlink:href="#linearGradient2038"
       id="linearGradient2030"
       gradientUnits="userSpaceOnUse"
       gradientTransform="translate(27.083571,-0.49500007)"
       x1="163.22339"
       y1="107.29436"
       x2="176.75112"
       y2="107.29436" /><linearGradient
       inkscape:collect="always"
       xlink:href="#linearGradient3559"
       id="linearGradient3561"
       x1="135.49265"
       y1="57.914998"
       x2="160.94571"
       y2="57.914998"
       gradientUnits="userSpaceOnUse" /><filter
       inkscape:collect="always"
       style="color-interpolation-filters:sRGB"
       id="filter3617"
       x="-0.18367869"
       y="-0.22959841"
       width="1.3673574"
       height="1.4591968"><feGaussianBlur
         inkscape:collect="always"
         stdDeviation="0.21647852"
         id="feGaussianBlur3619" /></filter></defs><g
     inkscape:label="Layer 1"
     inkscape:groupmode="layer"
     id="layer1"><g
       id="g2022"
       transform="translate(-32.504417,52.209587)"
       style="opacity:1"
       inkscape:export-filename="sprites.png"
       inkscape:export-xdpi="150"
       inkscape:export-ydpi="150"><g
         id="g9457"
         transform="translate(-116.82,-50.914286)"><path
           id="path1275"
           style="fill:url(#linearGradient1285);fill-opacity:1;stroke:none;stroke-width:0.281277;stroke-dasharray:none;stroke-opacity:1;paint-order:markers fill stroke"
           d="m 167.68229,87.369427 c -0.62079,1.134815 -0.96765,2.386784 -0.1664,3.530017 0.43253,-0.954277 0.55853,-2.537864 0.1664,-3.530017 z m 0.83096,1.765267 c -0.0121,1.436428 -0.57751,2.331249 -1.49604,3.353283 l -0.1664,-1.05885 c -1.92365,1.085026 -0.72139,2.098517 -0.8878,3.706234 -0.1003,0.969103 -1.13349,2.011902 -1.60558,2.824117 h -0.1664 l -0.66456,-1.235583 h -0.3328 l -0.64337,3.000333 0.21188,2.525432 c -0.4833,0.12643 -0.77477,0.27723 -0.96015,0.50643 l -1.43402,-0.91364 c 1.03092,2.63243 0.70673,3.16777 -0.3328,5.64772 -0.5755,-0.46666 -0.7834,-0.81796 -0.66508,-1.58854 -2.10757,1.73231 -0.45343,2.71371 0.29973,4.46278 0.20549,0.47725 0.0371,1.19978 0.0331,1.71462 h 0.16588 v -0.52968 l 1.55185,0.16485 c 0.51006,1.34869 1.67588,1.26446 3.22615,0.10387 1.67343,-1.25281 3.79435,-3.7583 5.30304,-4.0349 1.50869,-0.27661 2.40441,1.67537 3.41788,0.84491 0.35098,-0.28761 0.71612,-0.90943 0.96273,-1.66295 -0.086,0.44326 -0.0958,0.46965 0.33383,0.52504 -0.89867,1.33183 0.19081,2.64704 0.49868,4.05918 l 0.83096,0.35295 h 0.16639 l 1.32964,-5.11803 c -2.9954,1.66205 -1.46453,-2.69405 -3.15846,-4.23592 l -0.18552,0.73794 c -0.15018,-0.23838 -0.33901,-0.45557 -0.57309,-0.64234 0.0979,-0.56764 0.27746,-1.1449 0.59221,-1.86087 l -1.66192,0.7059 0.33228,-3.176552 -1.32963,0.7059 c 0.34079,-1.537278 -0.478,-3.669356 -1.82883,-4.41265 l -0.66508,2.294433 h -0.16588 c -0.28484,-2.446425 1.20496,-5.571804 -0.33279,-7.765417 z m -4.4881,5.470984 c -0.26223,0.953219 -0.0855,1.599593 0.83095,1.941483 z m -3.49126,4.0597 c -0.33307,1.486042 0.0189,2.992382 1.49603,3.530022 -0.10499,-1.27675 -0.63188,-2.625023 -1.49603,-3.530022 z m 4.82089,3.000342 h 0.1664 v 0.14469 c -0.0517,0.006 -0.10266,0.012 -0.15348,0.0181 z" /><rect
           style="fill:none;fill-opacity:1;stroke:#000000;stroke-width:0.253;stroke-dasharray:none;stroke-opacity:0;paint-order:markers fill stroke"
           id="rect964"
           width="28.001427"
           height="28.301443"
           x="154.45641"
           y="86.082207" /></g></g><g
       id="g2124"
       transform="translate(-150.27499,1.6488699)"
       style="opacity:1"><path
         id="path2024"
         style="fill:url(#linearGradient2030);fill-opacity:1;stroke:#000000;stroke-width:0.181;stroke-dasharray:none;stroke-opacity:1;paint-order:markers fill stroke"
         d="m 196.88729,87.015856 c -0.62079,1.134815 -0.96765,2.386784 -0.1664,3.530017 0.43253,-0.954277 0.55853,-2.537864 0.1664,-3.530017 z m 0.83096,1.765267 c -0.0121,1.436428 -0.57751,2.331249 -1.49604,3.353283 l -0.1664,-1.05885 c -1.92365,1.085026 -0.72139,2.098517 -0.8878,3.706234 -0.1003,0.969103 -1.13349,2.011902 -1.60558,2.824117 h -0.1664 l -0.66456,-1.235583 h -0.3328 l -0.64337,3.000333 0.21188,2.525433 c -0.4833,0.12643 -0.77477,0.27723 -0.96015,0.50643 l -1.43402,-0.91364 c 1.03092,2.63243 0.70673,3.16777 -0.3328,5.64772 -0.5755,-0.46666 -0.7834,-0.81796 -0.66508,-1.58854 -2.10757,1.73231 -0.45343,2.71371 0.29973,4.46278 0.20549,0.47725 0.0371,1.19978 0.0331,1.71462 h 0.16588 v -0.52968 l 1.55185,0.16485 c 0.51006,1.34869 1.67588,1.26446 3.22615,0.10387 1.67343,-1.25281 3.79435,-3.7583 5.30304,-4.0349 1.50869,-0.27661 2.40441,1.67537 3.41788,0.84491 0.35098,-0.28761 0.71612,-0.90943 0.96273,-1.66295 -0.086,0.44326 -0.0958,0.46965 0.33383,0.52504 -0.89867,1.33183 0.19081,2.64704 0.49868,4.05918 l 0.83096,0.35295 h 0.16639 l 1.32964,-5.11803 c -2.9954,1.66205 -1.46453,-2.69405 -3.15846,-4.23592 l -0.18552,0.73794 c -0.15018,-0.23838 -0.33901,-0.45557 -0.57309,-0.64234 0.0979,-0.56764 0.27746,-1.1449 0.59221,-1.86087 l -1.66192,0.7059 0.33228,-3.176553 -1.32963,0.7059 c 0.34079,-1.537278 -0.478,-3.669356 -1.82883,-4.41265 l -0.66508,2.294433 h -0.16588 c -0.28484,-2.446425 1.20496,-5.571804 -0.33279,-7.765417 z m -4.4881,5.470984 c -0.26223,0.953219 -0.0855,1.599593 0.83095,1.941483 z m -3.49126,4.0597 c -0.33307,1.486042 0.0189,2.992383 1.49603,3.530023 -0.10499,-1.27675 -0.63188,-2.625024 -1.49603,-3.530023 z m 4.82089,3.000343 h 0.1664 v 0.14469 c -0.0517,0.006 -0.10266,0.012 -0.15348,0.0181 z" /><rect
         style="fill:none;fill-opacity:1;stroke:#000000;stroke-width:0.253;stroke-dasharray:none;stroke-opacity:0;paint-order:markers fill stroke"
         id="rect2026"
         width="28.001427"
         height="28.301443"
         x="183.66141"
         y="85.728638" /></g><g
       id="g5763"
       transform="translate(-112.75276,54.508753)"
       style="opacity:1"><g
         id="g5251"
         transform="translate(-15.600796,-0.80004082)"><path
           style="fill:#fda4fe;fill-opacity:1;stroke:none;stroke-width:0.199203"
           d="m 185.00855,7.114372 0.29208,0.135857 -0.29208,-0.135857 m -0.29209,0.271715 c -6.26215,3.344673 -13.14313,6.899558 -18.40125,10.596918 l 6.71792,-0.951005 -7.88625,6.657038 6.42583,-0.815148 -7.30208,6.928754 h 0.29208 l 18.40125,-10.46106 -7.30208,0.951006 c 3.31167,-2.003986 7.19422,-4.472457 9.34667,-6.792896 l -5.2575,0.951005 3.79708,-5.0267432 1.16833,-2.0378688 m -8.17833,5.434317 0.58417,0.271716 v 0.135858 l -5.2575,2.988874 h -0.29209 l -0.58416,-0.271716 v -0.135858 l 5.54958,-2.988874 m -4.08917,5.706033 c 1.0581,1.157564 -2.73156,3.015502 -3.79708,4.075737 l -1.16833,-0.135858 z"
           id="path5008" /><rect
           style="fill:none;fill-opacity:1;stroke:#000000;stroke-width:0.253;stroke-dasharray:none;stroke-opacity:0;paint-order:markers fill stroke"
           id="rect4158"
           width="28.001427"
           height="28.301443"
           x="161.73997"
           y="5.1143522" /><path
           style="fill:#ffffff;fill-opacity:1;stroke:#000000;stroke-width:0.0914178;stroke-dasharray:none;stroke-opacity:1;paint-order:markers fill stroke"
           d="m 647.3865,60.725085 c -0.69073,-0.338933 -0.93543,-0.528527 -0.93543,-0.724778 0,-0.21501 1.98568,-1.3354 10.39595,-5.86575 l 10.39595,-5.599975 1.06134,0.488277 c 0.69223,0.318464 1.06196,0.564438 1.06311,0.707267 10e-4,0.150935 -3.07408,1.967832 -9.89576,5.846457 -11.26044,6.402385 -10.33407,6.007733 -12.08516,5.148502 z"
           id="path5243"
           transform="scale(0.26458333)" /><path
           style="fill:#ffffff;fill-opacity:1;stroke:#000000;stroke-width:0.0914178;stroke-dasharray:none;stroke-opacity:1;paint-order:markers fill stroke"
           d="m 635.31995,85.125111 c -1.05074,-0.129648 -1.93449,-0.259786 -1.9639,-0.289194 -0.0294,-0.02941 1.01069,-0.898898 2.31133,-1.932195 10.9945,-8.734632 16.0695,-12.746242 16.125,-12.746242 0.16372,0 0.60537,1.105037 0.60537,1.514658 0,1.931823 -2.28833,4.394579 -7.55028,8.12577 -0.88198,0.625402 -2.52144,1.787474 -3.64324,2.582381 -1.1218,0.794907 -2.45932,1.797657 -2.97225,2.228336 -0.51293,0.430678 -0.94813,0.776112 -0.96711,0.76763 -0.019,-0.0085 -0.89419,-0.121495 -1.94492,-0.251144 z"
           id="path5245"
           transform="scale(0.26458333)" /></g></g><g
       id="g5756"
       transform="translate(-119.10011,54.108733)"
       style="opacity:1"><path
         style="fill:#00d3b7;fill-opacity:1;stroke:#876e09;stroke-width:0.3;stroke-dasharray:none;stroke-opacity:1"
         d="m 204.00952,6.7143516 0.29208,0.135857 -0.29208,-0.135857 m -0.29209,0.271715 C 197.45528,10.33074 190.5743,13.885625 185.31618,17.582985 l 6.71792,-0.951005 -7.88625,6.657038 6.42583,-0.815148 -7.30208,6.928754 h 0.29208 l 18.40125,-10.46106 -7.30208,0.951006 c 3.31167,-2.003986 7.19422,-4.472457 9.34667,-6.792896 l -5.2575,0.951005 3.79708,-5.0267436 1.16833,-2.0378688 m -8.17833,5.4343174 0.58417,0.271716 v 0.135858 l -5.2575,2.988874 h -0.29209 l -0.58416,-0.271716 v -0.135858 l 5.54958,-2.988874 m -4.08917,5.706033 c 1.0581,1.157564 -2.73156,3.015502 -3.79708,4.075737 l -1.16833,-0.135858 z"
         id="path5255" /><rect
         style="fill:none;fill-opacity:1;stroke:#000000;stroke-width:0.253;stroke-dasharray:none;stroke-opacity:0;paint-order:markers fill stroke"
         id="rect5257"
         width="28.001427"
         height="28.301443"
         x="180.74095"
         y="4.7143316" /><path
         style="fill:#ffffff;fill-opacity:1;stroke:#000000;stroke-width:0.0241876;stroke-dasharray:none;stroke-opacity:1;paint-order:markers fill stroke"
         d="m 190.28864,15.666825 c -0.18275,-0.08968 -0.24749,-0.13984 -0.24749,-0.191764 0,-0.05689 0.52537,-0.353325 2.75059,-1.55198 l 2.7506,-1.48166 0.28081,0.12919 c 0.18315,0.08426 0.28098,0.149341 0.28128,0.187131 2.6e-4,0.03993 -0.81335,0.520655 -2.61825,1.546875 -2.97933,1.693964 -2.73423,1.589546 -3.19754,1.362208 z"
         id="path5259" /><path
         style="fill:#ffffff;fill-opacity:1;stroke:#000000;stroke-width:0.0241876;stroke-dasharray:none;stroke-opacity:1;paint-order:markers fill stroke"
         d="m 187.09604,22.122665 c -0.27801,-0.0343 -0.51184,-0.06874 -0.51962,-0.07652 -0.008,-0.0078 0.26741,-0.237833 0.61154,-0.511227 2.90896,-2.311038 4.25172,-3.372443 4.26641,-3.372443 0.0433,0 0.16017,0.292375 0.16017,0.400754 0,0.511128 -0.60546,1.162732 -1.99768,2.149943 -0.23336,0.165471 -0.66713,0.472936 -0.96394,0.683255 -0.29681,0.210319 -0.6507,0.47563 -0.78641,0.58958 -0.13571,0.113951 -0.25086,0.205347 -0.25588,0.203102 -0.005,-0.0022 -0.23659,-0.03214 -0.51459,-0.06645 z"
         id="path5261" /></g><g
       id="g9421"
       transform="translate(-2.7467651e-6,-0.80004099)"
       style="opacity:1"><g
         id="g9411"><g
           id="g9402"><g
             id="g9394"><g
               id="g9335"><rect
                 style="fill:none;fill-opacity:1;stroke:#000000;stroke-width:0.253;stroke-dasharray:none;stroke-opacity:0;paint-order:markers fill stroke"
                 id="rect5767"
                 width="28.001427"
                 height="28.301443"
                 x="5.1319914"
                 y="2.5142193" /><g
                 id="g9270"
                 transform="translate(-0.60003061,-0.70003571)"><rect
                   style="fill:#000000;fill-opacity:1;stroke:#e9e1d1;stroke-width:0;stroke-dasharray:none;stroke-opacity:1;paint-order:markers fill stroke"
                   id="rect9265"
                   width="22.401142"
                   height="22.401142"
                   x="7.900403"
                   y="4.900249" /><rect
                   style="fill:#feb27f;fill-opacity:1;stroke:#e9e1d1;stroke-width:0;stroke-dasharray:none;stroke-opacity:1;paint-order:markers fill stroke"
                   id="rect5831"
                   width="22.401142"
                   height="22.401142"
                   x="6.7003417"
                   y="4.1002088" /></g></g></g></g></g></g><g
       id="g9428"
       transform="translate(-4.8472654)"
       style="opacity:1"><g
         id="g9319"><rect
           style="fill:none;fill-opacity:1;stroke:#000000;stroke-width:0.253;stroke-dasharray:none;stroke-opacity:0;paint-order:markers fill stroke"
           id="rect9272"
           width="28.001427"
           height="28.301443"
           x="38.233681"
           y="1.7141784" /><rect
           style="fill:#000000;fill-opacity:1;stroke:#e5e1e4;stroke-width:0.6;stroke-dasharray:none;stroke-opacity:0.75976;paint-order:markers fill stroke"
           id="rect9274"
           width="22.401142"
           height="22.401142"
           x="40.402061"
           y="3.4001725" /><g
           id="g9313"><rect
             style="fill:#feb27f;fill-opacity:1;stroke:#e5e1e4;stroke-width:0.615647;stroke-dasharray:none;stroke-opacity:0.75976;paint-order:markers fill stroke"
             id="rect9276"
             width="23.085531"
             height="22.885521"
             x="39.209824"
             y="2.6079555" /></g></g></g><g
       id="g9434"
       transform="translate(-6.5682949,-0.23432675)"
       style="opacity:1"><rect
         style="fill:none;fill-opacity:1;stroke:#000000;stroke-width:0.253;stroke-dasharray:none;stroke-opacity:0;paint-order:markers fill stroke"
         id="rect9337"
         width="28.001427"
         height="28.301443"
         x="68.209137"
         y="1.948505" /><g
         id="g9343"
         transform="translate(63.006279,-1.26575)"><rect
           style="fill:#000000;fill-opacity:1;stroke:#e9e1d1;stroke-width:0;stroke-dasharray:none;stroke-opacity:1;paint-order:markers fill stroke"
           id="rect9339"
           width="22.401142"
           height="22.401142"
           x="7.900403"
           y="4.900249" /><rect
           style="fill:#feb27f;fill-opacity:1;stroke:#e9e1d1;stroke-width:0;stroke-dasharray:none;stroke-opacity:1;paint-order:markers fill stroke"
           id="rect9341"
           width="22.401142"
           height="22.401142"
           x="6.7003417"
           y="4.1002088" /></g></g><g
       id="g9440"
       transform="translate(-95.67881,28.520127)"
       style="opacity:1"><rect
         style="fill:none;fill-opacity:1;stroke:#000000;stroke-width:0.253;stroke-dasharray:none;stroke-opacity:0;paint-order:markers fill stroke"
         id="rect9347"
         width="28.001427"
         height="28.301443"
         x="100.8108"
         y="1.7484947" /><g
         id="g9353"
         transform="translate(95.607942,-0.93659353)"><rect
           style="fill:#000000;fill-opacity:1;stroke:#e9e1d1;stroke-width:0;stroke-dasharray:none;stroke-opacity:1;paint-order:markers fill stroke"
           id="rect9349"
           width="22.401142"
           height="22.401142"
           x="7.900403"
           y="4.900249" /><rect
           style="fill:#feb27f;fill-opacity:1;stroke:#e9e1d1;stroke-width:0;stroke-dasharray:none;stroke-opacity:1;paint-order:markers fill stroke"
           id="rect9351"
           width="22.401142"
           height="22.401142"
           x="6.7003417"
           y="4.1002088" /></g></g><g
       id="g9446"
       transform="translate(-98.22595,28.120106)"
       style="opacity:1"><rect
         style="fill:none;fill-opacity:1;stroke:#000000;stroke-width:0.253;stroke-dasharray:none;stroke-opacity:0;paint-order:markers fill stroke"
         id="rect9357"
         width="28.001427"
         height="28.301443"
         x="131.61237"
         y="2.1485152" /><g
         id="g9363"
         transform="translate(126.40952,-0.00740646)"><rect
           style="fill:#000000;fill-opacity:1;stroke:#e9e1d1;stroke-width:0;stroke-dasharray:none;stroke-opacity:1;paint-order:markers fill stroke"
           id="rect9359"
           width="22.401142"
           height="22.401142"
           x="7.900403"
           y="4.900249" /><rect
           style="fill:#feb27f;fill-opacity:1;stroke:#e9e1d1;stroke-width:0;stroke-dasharray:none;stroke-opacity:1;paint-order:markers fill stroke"
           id="rect9361"
           width="22.401142"
           height="22.401142"
           x="6.7003417"
           y="4.1002088" /></g></g><g
       id="g9453"
       transform="translate(-156.2819,56.674549)"
       style="opacity:1"><g
         id="g9375"
         transform="translate(156.2819,-0.36570408)"><rect
           style="fill:none;fill-opacity:1;stroke:#000000;stroke-width:0.253;stroke-dasharray:none;stroke-opacity:0;paint-order:markers fill stroke"
           id="rect9367"
           width="28.001427"
           height="28.301443"
           x="5.1319914"
           y="2.5142193" /><g
           id="g9373"
           transform="translate(-0.60003061,-0.70003571)"><rect
             style="fill:#000000;fill-opacity:1;stroke:#e9e1d1;stroke-width:0;stroke-dasharray:none;stroke-opacity:1;paint-order:markers fill stroke"
             id="rect9369"
             width="22.401142"
             height="22.401142"
             x="7.900403"
             y="4.900249" /><rect
             style="fill:#feb27f;fill-opacity:1;stroke:#e9e1d1;stroke-width:0;stroke-dasharray:none;stroke-opacity:1;paint-order:markers fill stroke"
             id="rect9371"
             width="22.401142"
             height="22.401142"
             x="6.7003417"
             y="4.1002088" /></g></g></g><g
       id="g370"
       transform="translate(-69.971524,28.120106)"
       style="opacity:1"><rect
         style="fill:none;fill-opacity:1;stroke:#000000;stroke-width:0.253;stroke-dasharray:none;stroke-opacity:0;paint-order:markers fill stroke"
         id="rect362"
         width="28.001427"
         height="28.301443"
         x="131.61237"
         y="2.1485152" /><g
         id="g368"
         transform="translate(126.40952,-0.00740646)"><rect
           style="fill:#000000;fill-opacity:1;stroke:#e9e1d1;stroke-width:0;stroke-dasharray:none;stroke-opacity:1;paint-order:markers fill stroke"
           id="rect364"
           width="22.401142"
           height="22.401142"
           x="7.900403"
           y="4.900249" /><rect
           style="fill:#feb27f;fill-opacity:1;stroke:#e9e1d1;stroke-width:0;stroke-dasharray:none;stroke-opacity:1;paint-order:markers fill stroke"
           id="rect366"
           width="22.401142"
           height="22.401142"
           x="6.7003417"
           y="4.1002088" /></g></g><g
       id="g3632"
       style="stroke:none"
       transform="translate(-56.777081,56.366205)"><rect
         style="fill:none;fill-opacity:1;stroke:none;stroke-width:0.253;stroke-dasharray:none;stroke-opacity:1;paint-order:markers fill stroke"
         id="rect376"
         width="28.001427"
         height="28.301443"
         x="118.41792"
         y="31.011303" /><path
         sodipodi:type="star"
         style="fill:url(#linearGradient3561);fill-opacity:1;stroke:none;stroke-width:0;stroke-opacity:1;paint-order:markers fill stroke"
         id="path1003"
         inkscape:flatsided="true"
         sodipodi:sides="3"
         sodipodi:cx="147.65143"
         sodipodi:cy="61.097141"
         sodipodi:r1="14.739137"
         sodipodi:r2="7.3695688"
         sodipodi:arg1="0.44648191"
         sodipodi:arg2="1.4936795"
         inkscape:rounded="0"
         inkscape:randomized="0"
         d="m 160.94571,67.461427 -25.45306,1.96676 11.02327,-23.026377 z"
         inkscape:transform-center-x="-0.56775331"
         inkscape:transform-center-y="-3.4166807"
         transform="matrix(1,0,0,1.0737043,-15.415714,-17.704297)" /><ellipse
         style="mix-blend-mode:normal;fill:#3155b0;fill-opacity:1;stroke:none;stroke-width:0;stroke-opacity:1;paint-order:markers fill stroke;filter:url(#filter3617)"
         id="path3615"
         cx="141.42859"
         cy="52.328579"
         rx="1.4142861"
         ry="1.1314287" /></g></g></svg>
